<?xml version="1.0" encoding="UTF-8" ?>
<!DOCTYPE svg PUBLIC "-//W3C//DTD SVG 1.1//EN" "http://www.w3.org/Graphics/SVG/1.1/DTD/svg11.dtd">
<svg width="800pt" height="220pt" viewBox="0 0 800 220" version="1.1" xmlns="http://www.w3.org/2000/svg">
<g id="#7289daff">
<path fill="#ffffff" opacity="1.00" d=" M 1.03 22.96 C 1.01 11.32 11.40 0.97 23.04 1.03 C 71.36 0.96 119.68 1.04 168.00 0.99 C 171.91 0.91 175.94 1.10 179.58 2.69 C 188.03 6.06 193.84 14.88 193.66 23.97 C 193.68 89.02 193.66 154.06 193.67 219.11 C 176.22 204.30 159.23 188.96 142.49 173.35 C 144.45 180.05 146.38 186.76 148.33 193.46 C 106.56 193.46 64.80 193.49 23.03 193.45 C 11.21 193.50 0.75 182.82 1.01 171.01 C 0.99 121.66 0.95 72.31 1.03 22.96 M 49.56 63.50 C 39.42 83.03 33.91 105.03 33.65 127.04 C 41.18 137.78 54.37 143.21 67.21 143.58 C 69.67 140.57 72.13 137.57 74.59 134.57 C 67.14 132.19 60.04 128.06 55.29 121.72 C 68.40 129.69 83.67 134.13 99.04 134.14 C 113.90 134.07 128.61 129.50 141.23 121.74 C 136.29 128.20 128.95 132.34 121.28 134.69 C 123.68 137.57 126.10 140.43 128.40 143.39 C 141.29 143.24 154.48 137.67 162.12 127.00 C 161.84 105.04 156.34 83.11 146.27 63.60 C 137.58 56.60 126.46 52.41 115.29 51.94 C 114.95 52.38 114.27 53.26 113.93 53.70 C 123.53 56.74 133.06 60.75 140.89 67.22 C 132.42 62.99 123.47 59.61 114.11 57.98 C 93.38 54.33 71.58 57.76 52.85 67.29 C 61.18 60.35 71.43 56.33 81.65 53.08 C 79.85 51.21 77.16 52.22 74.92 52.42 C 65.78 54.04 56.82 57.67 49.56 63.50 Z" />
<path fill="#ffffff" opacity="1.00" d=" M 406.00 48.12 C 414.76 45.91 424.23 46.14 432.80 49.06 C 440.02 51.53 446.12 56.44 450.97 62.24 C 445.59 66.38 440.21 70.52 434.81 74.65 C 429.66 69.49 422.33 65.92 414.91 67.01 C 411.20 67.48 407.51 70.02 406.83 73.89 C 405.96 76.94 408.03 79.90 410.57 81.39 C 416.15 84.77 422.87 85.00 429.00 86.83 C 436.07 88.82 443.24 92.04 447.87 97.98 C 453.05 104.63 454.07 113.64 452.77 121.74 C 451.10 130.85 444.10 138.09 436.00 142.06 C 425.38 147.27 412.53 148.87 401.36 144.50 C 393.41 141.51 386.68 135.94 381.40 129.38 C 386.58 124.50 391.78 119.64 396.99 114.78 C 402.92 121.42 412.19 125.12 421.06 123.80 C 424.66 123.30 428.65 120.99 428.99 117.00 C 429.38 114.02 426.76 111.84 424.43 110.54 C 418.03 106.89 410.35 107.33 403.59 104.69 C 395.57 101.85 388.23 96.18 384.79 88.24 C 381.04 79.52 381.36 68.76 386.78 60.79 C 391.21 54.25 398.45 50.06 406.00 48.12 Z" />
<path fill="#ffffff" opacity="1.00" d=" M 470.67 57.65 C 478.92 49.78 490.70 46.43 501.93 46.82 C 510.61 47.02 519.28 50.29 525.62 56.30 C 529.52 59.89 532.41 64.43 534.71 69.18 C 528.02 71.88 521.34 74.60 514.65 77.27 C 509.81 69.20 497.97 67.18 490.35 72.34 C 487.51 74.21 485.96 77.59 486.17 80.95 C 486.16 91.66 486.15 102.36 486.18 113.06 C 486.06 115.87 487.18 118.70 489.35 120.52 C 496.68 126.79 509.87 124.59 513.65 115.32 C 520.81 118.63 527.99 121.89 535.15 125.20 C 531.14 132.82 524.91 139.37 517.08 143.09 C 506.30 148.41 493.33 148.10 482.30 143.71 C 474.71 140.67 467.92 135.11 464.42 127.62 C 462.06 122.79 461.33 117.35 461.40 112.02 C 461.44 101.04 461.34 90.06 461.45 79.09 C 461.56 71.10 464.83 63.16 470.67 57.65 Z" />
<path fill="#ffffff" opacity="1.00" d=" M 575.22 47.21 C 587.84 45.67 601.54 48.17 611.61 56.31 C 618.43 61.74 622.59 70.23 622.76 78.94 C 622.90 90.62 622.83 102.30 622.80 113.98 C 622.80 122.04 619.62 130.12 613.75 135.72 C 605.64 143.63 594.05 147.02 582.93 147.15 C 571.51 147.21 559.55 143.90 551.13 135.89 C 545.14 130.29 541.85 122.14 541.87 113.97 C 541.82 102.66 541.82 91.35 541.87 80.05 C 541.87 72.77 544.31 65.44 549.16 59.95 C 555.71 52.43 565.49 48.46 575.22 47.21 M 577.52 69.74 C 572.39 70.64 566.58 74.20 566.53 80.00 C 566.47 91.31 566.46 102.62 566.54 113.93 C 566.46 118.33 570.22 121.57 574.07 122.89 C 579.87 124.91 586.56 124.82 592.13 122.11 C 595.25 120.61 598.01 117.67 598.02 114.02 C 598.15 103.02 598.04 92.01 598.07 81.01 C 598.25 77.81 596.84 74.57 594.15 72.77 C 589.39 69.40 583.14 68.79 577.52 69.74 Z" />
<path fill="#ffffff" opacity="1.00" d=" M 258.16 48.07 C 270.43 48.08 282.70 48.05 294.97 48.08 C 305.26 48.15 316.11 50.97 323.68 58.28 C 329.54 63.85 332.44 71.97 332.50 79.95 C 332.58 91.30 332.54 102.64 332.52 113.99 C 332.52 121.75 329.90 129.71 324.31 135.25 C 316.97 142.66 306.25 145.61 296.07 145.83 C 283.40 145.92 270.72 145.83 258.05 145.87 C 258.05 138.13 258.05 130.40 258.05 122.67 C 270.33 122.65 282.61 122.68 294.88 122.66 C 298.78 122.63 303.21 121.92 305.73 118.62 C 308.12 115.60 307.78 111.55 307.80 107.94 C 307.68 98.63 307.97 89.31 307.66 80.01 C 307.44 75.59 303.64 72.13 299.39 71.55 C 293.79 70.82 288.11 71.36 282.47 71.20 C 282.48 84.46 282.48 97.72 282.47 110.97 C 274.36 103.69 266.25 96.39 258.15 89.08 C 258.17 75.41 258.15 61.74 258.16 48.07 Z" />
<path fill="#ffffff" opacity="1.00" d=" M 345.86 48.07 C 354.08 48.07 362.29 48.07 370.50 48.07 C 370.51 80.62 370.50 113.17 370.51 145.72 C 362.29 145.74 354.08 145.73 345.86 145.73 C 345.86 113.18 345.86 80.62 345.86 48.07 Z" />
<path fill="#ffffff" opacity="1.00" d=" M 635.93 48.20 C 649.31 48.21 662.68 48.18 676.06 48.22 C 685.51 48.33 695.57 50.69 702.52 57.48 C 709.02 63.75 711.45 73.13 711.27 81.93 C 711.06 90.03 709.22 98.59 703.76 104.84 C 700.73 108.43 696.54 110.77 692.18 112.37 C 701.08 123.51 709.92 134.70 718.79 145.86 C 708.52 145.87 698.26 145.86 687.99 145.87 C 680.42 135.54 672.89 125.18 665.31 114.86 C 663.83 114.86 662.36 114.86 660.91 114.87 C 660.90 125.20 660.90 135.53 660.90 145.86 C 652.58 145.86 644.25 145.87 635.93 145.86 C 635.93 113.31 635.93 80.76 635.93 48.20 M 660.91 71.20 C 660.90 78.64 660.90 86.09 660.90 93.53 C 666.30 93.43 671.71 93.77 677.10 93.35 C 681.78 93.04 685.95 89.40 686.79 84.77 C 688.19 79.09 684.45 72.62 678.58 71.55 C 672.73 70.79 666.79 71.38 660.91 71.20 Z" />
<path fill="#ffffff" opacity="1.00" d=" M 724.96 48.07 C 737.32 48.08 749.68 48.03 762.05 48.09 C 772.32 48.20 783.12 51.07 790.63 58.41 C 796.43 63.97 799.31 72.05 799.40 79.99 C 799.49 91.32 799.45 102.66 799.42 113.99 C 799.43 121.74 796.81 129.68 791.25 135.21 C 783.94 142.64 773.22 145.59 763.06 145.82 C 750.32 145.92 737.58 145.84 724.84 145.86 C 724.84 138.13 724.84 130.40 724.85 122.67 C 737.20 122.65 749.55 122.69 761.90 122.65 C 765.76 122.62 770.15 121.83 772.61 118.53 C 774.91 115.52 774.56 111.54 774.60 107.98 C 774.48 98.69 774.76 89.39 774.46 80.10 C 774.28 75.49 770.22 71.96 765.80 71.48 C 760.31 70.89 754.77 71.33 749.27 71.20 C 749.27 84.46 749.27 97.72 749.27 110.98 C 741.15 103.69 733.05 96.39 724.95 89.09 C 724.96 75.42 724.95 61.74 724.96 48.07 Z" />
<path fill="#ffffff" opacity="1.00" d=" M 72.50 93.70 C 77.98 90.73 85.32 93.71 87.54 99.43 C 90.68 106.20 86.56 115.65 78.81 116.58 C 72.13 117.66 66.10 111.48 66.18 104.97 C 65.97 100.43 68.41 95.79 72.50 93.70 Z" />
<path fill="#ffffff" opacity="1.00" d=" M 113.35 93.39 C 118.99 90.79 125.99 94.31 127.89 100.07 C 130.52 106.47 126.84 115.00 119.81 116.42 C 113.34 118.04 106.89 112.49 106.42 106.09 C 105.74 100.97 108.50 95.41 113.35 93.39 Z" />
</g>
</svg>
