<?xml version="1.0" encoding="UTF-8" ?>
<!DOCTYPE svg PUBLIC "-//W3C//DTD SVG 1.1//EN" "http://www.w3.org/Graphics/SVG/1.1/DTD/svg11.dtd">
<svg width="985pt" height="293pt" viewBox="0 0 985 293" version="1.1" xmlns="http://www.w3.org/2000/svg">
<g id="rgb(121, 109, 255)ff">
<path fill="rgb(121, 109, 255)" opacity="1.00" d=" M 0.00 0.94 C 72.92 1.00 145.84 0.81 218.75 1.04 C 218.74 33.41 218.76 65.78 218.74 98.15 C 210.64 98.41 202.54 98.12 194.44 98.30 C 194.40 130.66 194.51 163.03 194.39 195.39 C 162.03 195.51 129.66 195.40 97.30 195.44 C 97.16 227.63 97.32 259.83 97.22 292.02 C 64.81 291.97 32.41 292.01 0.00 292.00 L 0.00 0.94 M 24.17 25.17 C 24.24 36.86 24.20 48.54 24.19 60.23 C 24.52 121.49 24.02 182.78 24.59 244.03 C 40.69 243.91 56.80 244.13 72.90 243.92 C 72.91 215.02 72.98 186.12 72.89 157.22 C 72.92 153.77 72.93 150.31 72.99 146.86 C 105.29 146.63 137.60 146.81 169.91 146.77 C 170.09 138.64 170.24 130.49 169.82 122.36 C 137.54 122.43 105.26 122.55 72.99 122.30 C 72.90 106.20 72.87 90.10 73.00 74.00 C 113.43 73.85 153.87 73.95 194.30 73.96 C 194.55 69.43 194.47 64.90 194.39 60.37 C 194.52 49.57 194.39 38.77 194.46 27.97 C 195.43 23.75 189.79 25.54 187.37 25.46 C 133.00 24.72 78.56 25.26 24.17 25.17 Z" />
<path fill="rgb(121, 109, 255)" opacity="1.00" d=" M 231.03 0.99 C 295.81 0.90 360.60 0.92 425.38 0.97 C 425.51 8.99 425.42 17.02 425.40 25.04 C 433.50 25.54 441.62 25.08 449.73 25.27 C 449.93 33.38 449.45 41.50 449.97 49.60 C 457.98 49.57 465.99 49.50 474.01 49.61 C 474.04 122.50 474.07 195.38 473.99 268.27 C 466.01 268.40 458.03 268.25 450.05 268.33 L 449.33 268.33 C 449.25 276.19 449.66 284.05 449.22 291.90 C 425.09 292.08 400.95 291.85 376.82 292.00 C 376.78 284.11 376.88 276.21 376.77 268.32 C 368.76 267.88 360.31 269.15 352.59 267.73 C 352.28 259.84 352.68 251.93 352.44 244.04 C 344.38 244.05 336.31 243.97 328.25 244.09 C 328.21 260.39 328.31 276.70 328.20 293.00 L 231.20 293.00 C 230.75 195.67 231.10 98.32 231.03 0.99 M 255.37 25.37 C 255.36 26.07 255.33 27.46 255.32 28.15 C 255.16 38.81 255.48 49.48 255.15 60.13 L 255.66 60.77 C 255.00 71.19 255.45 81.66 255.42 92.10 C 255.36 114.05 255.15 136.00 255.45 157.95 C 255.40 168.64 255.29 179.33 255.51 190.01 C 255.42 208.00 255.26 225.99 255.59 243.97 C 271.69 243.99 287.80 244.09 303.90 243.92 C 303.95 225.73 303.90 207.54 303.92 189.34 C 304.01 183.26 303.77 177.17 304.01 171.08 C 320.22 171.10 336.43 170.82 352.63 171.23 C 352.62 179.24 352.39 187.26 352.70 195.28 C 358.05 195.50 363.41 195.50 368.77 195.28 C 371.43 195.34 374.09 195.38 376.76 195.37 C 377.23 203.48 376.54 211.61 377.13 219.72 C 385.08 219.79 393.05 219.49 401.00 219.83 C 401.24 227.86 400.96 235.89 401.10 243.92 C 409.15 244.07 417.19 244.03 425.24 243.95 C 425.60 235.80 425.22 227.64 425.41 219.49 C 433.43 219.57 441.46 219.70 449.49 219.48 C 449.70 211.52 449.72 203.55 449.47 195.59 C 441.47 195.38 433.47 195.54 425.46 195.56 C 425.39 193.72 425.30 191.88 425.25 190.04 C 425.48 183.73 425.52 177.41 425.23 171.10 C 417.18 170.94 409.13 171.23 401.08 170.98 C 400.98 166.62 401.12 162.26 400.96 157.91 C 401.05 154.23 401.04 150.54 401.07 146.86 C 409.09 146.61 417.11 146.82 425.12 146.78 C 425.82 138.69 425.19 130.54 425.42 122.43 C 433.55 122.30 441.70 122.81 449.82 122.22 C 449.78 112.28 449.83 102.34 449.78 92.40 C 449.70 86.29 449.75 80.18 449.75 74.08 C 441.63 73.70 433.50 74.22 425.38 73.81 C 425.43 69.30 425.50 64.80 425.40 60.29 C 425.47 56.73 425.48 53.17 425.39 49.61 C 417.31 49.51 409.22 49.55 401.14 49.60 C 400.87 41.55 401.21 33.49 400.91 25.44 C 381.86 25.21 362.80 25.40 343.74 25.40 C 314.28 25.24 284.83 25.24 255.37 25.37 Z" />
<path fill="rgb(121, 109, 255)" opacity="1.00" d=" M 558.92 0.98 C 599.41 0.91 639.90 0.92 680.39 0.97 C 680.47 8.96 680.48 16.95 680.37 24.94 C 688.45 25.67 696.61 25.02 704.73 25.27 C 704.98 33.38 704.34 41.54 705.05 49.63 C 713.04 49.52 721.03 49.53 729.01 49.61 C 729.04 114.40 729.07 179.20 729.00 243.99 C 720.93 244.11 712.86 243.98 704.79 244.05 C 704.71 252.08 704.75 260.11 704.79 268.14 C 696.68 268.57 688.55 268.15 680.43 268.35 C 680.41 276.42 680.48 284.50 680.41 292.57 C 631.81 292.66 583.19 292.66 534.59 292.57 C 534.52 284.50 534.58 276.42 534.56 268.35 C 526.45 268.15 518.32 268.56 510.21 268.14 C 510.25 260.11 510.29 252.08 510.21 244.05 C 502.15 243.98 494.08 244.10 486.02 244.00 C 485.99 187.30 485.98 130.60 486.02 73.90 C 494.08 73.82 502.14 73.92 510.20 73.87 C 510.29 65.84 510.27 57.81 510.19 49.79 C 518.29 49.25 526.43 49.73 534.55 49.55 C 534.74 41.43 534.23 33.29 534.79 25.19 C 542.82 25.27 550.84 25.29 558.87 25.20 C 558.92 17.12 558.81 9.05 558.92 0.98 M 583.25 25.28 C 583.19 33.32 583.04 41.38 583.35 49.42 C 575.23 49.77 567.10 49.40 558.99 49.61 C 558.92 53.12 558.93 56.63 559.00 60.15 C 558.90 64.74 559.00 69.33 558.93 73.92 C 550.82 74.03 542.72 73.89 534.62 73.98 C 534.52 80.24 534.48 86.50 534.64 92.75 C 534.62 94.46 534.60 96.18 534.60 97.89 C 526.53 98.73 518.39 97.96 510.30 98.29 C 510.37 130.61 510.08 162.95 510.56 195.27 C 518.58 195.54 526.60 195.28 534.62 195.38 C 534.91 203.48 534.09 211.66 535.00 219.72 C 542.97 219.77 550.95 219.50 558.91 219.83 C 559.09 227.87 558.82 235.91 559.02 243.95 C 591.34 244.03 623.66 244.03 655.98 243.95 C 656.18 235.91 655.90 227.87 656.09 219.83 C 664.24 219.44 672.40 219.88 680.56 219.63 C 680.53 211.63 680.31 203.62 680.63 195.63 C 688.62 195.32 696.63 195.53 704.62 195.56 C 704.69 193.50 704.74 191.45 704.77 189.39 C 704.62 157.23 704.86 125.07 704.69 92.91 C 704.74 86.63 704.69 80.34 704.74 74.06 C 696.63 73.77 688.51 74.15 680.40 73.86 C 680.45 65.77 680.49 57.69 680.40 49.60 C 672.31 49.51 664.22 49.54 656.14 49.60 C 655.90 42.42 656.12 35.24 656.03 28.05 C 656.00 27.36 655.94 25.96 655.91 25.27 C 631.69 25.34 607.47 25.26 583.25 25.28 Z" />
<path fill="rgb(121, 109, 255)" opacity="1.00" d=" M 741.02 0.98 C 805.81 0.90 870.60 0.92 935.39 0.97 C 935.47 8.96 935.48 16.95 935.37 24.94 C 943.45 25.67 951.61 25.02 959.73 25.27 C 959.80 57.64 959.70 90.01 959.78 122.39 C 967.82 122.49 975.85 122.45 983.89 122.38 C 984.26 162.91 984.01 203.46 984.02 243.99 C 975.94 244.11 967.86 243.98 959.79 244.05 C 959.71 252.08 959.75 260.12 959.78 268.15 C 951.67 268.55 943.55 268.16 935.44 268.35 C 935.41 276.42 935.48 284.50 935.41 292.57 C 870.61 292.66 805.80 292.67 741.00 292.57 C 741.02 195.37 740.97 98.18 741.02 0.98 M 765.29 25.35 C 765.30 26.05 765.33 27.46 765.34 28.17 C 765.30 49.69 765.38 71.21 765.27 92.73 L 765.69 92.72 C 764.87 103.49 765.45 114.37 765.39 125.18 C 765.30 136.11 765.25 147.05 765.42 157.98 C 765.31 168.66 765.24 179.35 765.46 190.03 C 765.44 208.01 765.20 226.00 765.56 243.97 C 814.03 244.01 862.51 244.04 910.98 243.95 C 911.27 235.79 910.69 227.62 911.27 219.47 C 919.26 219.57 927.26 219.75 935.24 219.42 C 935.57 211.41 935.26 203.39 935.38 195.38 C 943.03 195.28 950.68 195.53 958.33 195.29 C 960.19 196.21 959.53 192.98 959.78 192.03 C 959.80 176.98 959.82 161.94 959.83 146.89 C 951.68 146.54 943.52 146.96 935.38 146.71 C 935.40 139.56 935.46 132.42 935.39 125.28 C 935.40 124.58 935.43 123.19 935.44 122.49 C 927.36 122.33 919.29 122.41 911.22 122.51 C 910.88 114.42 911.04 106.32 911.12 98.24 C 919.21 98.18 927.31 98.35 935.40 98.18 C 935.42 96.52 935.44 94.87 935.44 93.21 C 935.41 78.68 935.50 64.14 935.40 49.60 C 927.31 49.51 919.22 49.55 911.14 49.60 C 910.91 42.35 911.11 35.09 911.04 27.83 C 911.01 27.19 910.95 25.90 910.92 25.25 C 862.38 25.28 813.83 25.33 765.29 25.35 Z" />
<path fill="rgb(121, 109, 255)" opacity="1.00" d=" M 304.01 74.01 C 316.91 73.82 329.82 74.03 342.72 73.95 C 360.75 73.90 378.78 73.96 396.81 73.99 C 398.20 74.00 399.60 74.02 401.00 74.04 C 401.17 80.30 401.02 86.55 401.08 92.81 C 401.00 102.64 401.20 112.47 400.99 122.29 C 393.05 122.62 385.10 122.33 377.15 122.39 C 376.56 130.49 377.18 138.62 376.81 146.74 C 352.55 146.61 328.33 147.34 304.08 146.76 C 303.72 128.81 304.05 110.85 303.92 92.90 C 303.98 86.60 303.82 80.31 304.01 74.01 Z" />
<path fill="rgb(121, 109, 255)" opacity="1.00" d=" M 583.25 74.03 C 599.41 73.78 615.58 73.97 631.75 73.97 C 632.02 80.21 631.74 86.46 631.86 92.71 C 631.89 94.51 631.95 96.32 632.02 98.13 C 639.98 98.42 647.95 98.10 655.92 98.24 C 656.25 117.89 655.97 137.54 656.07 157.19 C 656.10 161.79 656.15 166.39 655.98 170.99 C 648.00 171.29 640.02 170.93 632.04 171.14 C 631.75 177.42 631.95 183.70 631.99 189.99 C 631.96 191.73 631.90 193.47 631.84 195.21 C 615.66 195.47 599.43 195.62 583.26 195.14 C 583.20 193.43 583.16 191.73 583.15 190.03 C 583.18 183.73 583.40 177.43 583.08 171.14 C 575.06 170.90 567.03 171.28 559.02 170.98 C 558.85 166.39 558.90 161.79 558.93 157.20 C 559.04 137.54 558.72 117.89 559.08 98.24 C 567.09 98.10 575.11 98.42 583.12 98.12 C 583.16 96.35 583.20 94.57 583.24 92.80 C 583.28 86.54 583.20 80.29 583.25 74.03 Z" />
<path fill="rgb(121, 109, 255)" opacity="1.00" d=" M 813.91 73.91 C 838.21 73.85 862.52 73.82 886.82 73.93 C 886.88 80.24 886.82 86.55 886.85 92.86 C 886.82 102.67 886.88 112.49 886.84 122.31 C 862.55 122.61 838.25 122.43 813.96 122.46 C 813.91 112.58 814.06 102.70 813.89 92.83 C 813.86 86.52 813.82 80.21 813.91 73.91 Z" />
<path fill="rgb(121, 109, 255)" opacity="1.00" d=" M 814.02 146.87 C 838.29 146.69 862.58 146.66 886.86 146.89 C 886.93 150.58 886.96 154.28 886.94 157.98 C 886.91 168.64 886.88 179.30 886.96 189.97 C 886.94 191.71 886.89 193.46 886.85 195.21 C 862.59 195.53 838.30 195.48 814.04 195.23 C 813.96 193.50 813.90 191.76 813.88 190.03 C 813.98 178.76 813.89 167.50 813.95 156.23 C 813.90 153.11 813.93 149.99 814.02 146.87 Z" />
</g>
<g id="#645bd0ff">
<path fill="#645bd0" opacity="1.00" d=" M 24.17 25.17 C 78.56 25.26 133.00 24.72 187.37 25.46 L 186.33 25.56 C 143.27 25.75 100.20 25.65 57.14 25.61 C 48.25 25.45 39.34 25.39 30.45 25.65 C 28.56 25.66 26.67 25.74 24.79 25.81 C 24.65 37.28 24.44 48.77 24.95 60.24 L 24.19 60.23 C 24.20 48.54 24.24 36.86 24.17 25.17 Z" />
</g>
<g id="#645bd0ff">
<path fill="#645bd0" opacity="1.00" d=" M 187.37 25.46 C 189.79 25.54 195.43 23.75 194.46 27.97 C 192.08 27.97 189.71 28.00 187.34 27.88 C 187.09 27.30 186.58 26.14 186.33 25.56 L 187.37 25.46 Z" />
</g>
<g id="#8378ffff">
<path fill="#8378ff" opacity="1.00" d=" M 583.25 25.28 C 607.47 25.26 631.69 25.34 655.91 25.27 C 655.94 25.96 656.00 27.36 656.03 28.05 C 631.97 28.46 607.89 27.67 583.84 28.07 C 583.14 35.17 583.99 42.31 583.35 49.42 C 583.04 41.38 583.19 33.32 583.25 25.28 Z" />
</g>
<g id="#6d64deff">
<path fill="#6d64de" opacity="1.00" d=" M 765.29 25.35 C 813.83 25.33 862.38 25.28 910.92 25.25 C 910.95 25.90 911.01 27.19 911.04 27.83 C 862.46 27.42 813.92 28.72 765.34 28.17 C 765.33 27.46 765.30 26.05 765.29 25.35 Z" />
</g>
<g id="#645bd0ff">
<path fill="#645bd0" opacity="1.00" d=" M 24.79 25.81 C 26.67 25.74 28.56 25.66 30.45 25.65 C 31.02 28.39 33.85 28.03 35.99 28.09 C 42.83 28.05 49.66 27.96 56.50 28.14 C 57.31 38.24 57.36 48.46 56.56 58.57 C 48.30 60.12 39.65 57.41 31.60 60.14 C 29.38 60.25 27.17 60.26 24.95 60.24 C 24.44 48.77 24.65 37.28 24.79 25.81 Z" />
</g>
<g id="#645bd0ff">
<path fill="#645bd0" opacity="1.00" d=" M 30.45 25.65 C 39.34 25.39 48.25 25.45 57.14 25.61 C 56.98 26.24 56.66 27.50 56.50 28.14 C 49.66 27.96 42.83 28.05 35.99 28.09 C 33.85 28.03 31.02 28.39 30.45 25.65 Z" />
</g>
<g id="#645bd0ff">
<path fill="#645bd0" opacity="1.00" d=" M 57.14 25.61 C 100.20 25.65 143.27 25.75 186.33 25.56 C 186.58 26.14 187.09 27.30 187.34 27.88 C 178.74 28.43 170.11 28.26 161.50 28.23 C 145.60 24.68 129.11 28.85 112.96 27.85 C 103.70 31.30 93.81 29.39 84.18 30.18 C 82.82 40.17 86.03 50.79 82.12 60.35 C 65.28 60.28 48.43 60.55 31.60 60.14 C 39.65 57.41 48.30 60.12 56.56 58.57 C 57.36 48.46 57.31 38.24 56.50 28.14 C 56.66 27.50 56.98 26.24 57.14 25.61 Z" />
</g>
<g id="#6b63d6ff">
<path fill="#6b63d6" opacity="1.00" d=" M 255.37 25.37 C 284.83 25.24 314.28 25.24 343.74 25.40 C 343.54 29.55 338.76 27.90 335.99 28.29 C 309.10 27.86 282.21 27.82 255.32 28.15 C 255.33 27.46 255.36 26.07 255.37 25.37 Z" />
</g>
<g id="#645bd0ff">
<path fill="#645bd0" opacity="1.00" d=" M 343.74 25.40 C 362.80 25.40 381.86 25.21 400.91 25.44 C 401.21 33.49 400.87 41.55 401.14 49.60 C 409.22 49.55 417.31 49.51 425.39 49.61 C 425.48 53.17 425.47 56.73 425.40 60.29 C 368.65 60.30 311.90 60.31 255.15 60.13 C 255.48 49.48 255.16 38.81 255.32 28.15 C 282.21 27.82 309.10 27.86 335.99 28.29 C 338.76 27.90 343.54 29.55 343.74 25.40 Z" />
<path fill="#645bd0" opacity="1.00" d=" M 583.84 28.07 C 607.89 27.67 631.97 28.46 656.03 28.05 C 656.12 35.24 655.90 42.42 656.14 49.60 C 664.22 49.54 672.31 49.51 680.40 49.60 C 680.49 57.69 680.45 65.77 680.40 73.86 C 688.51 74.15 696.63 73.77 704.74 74.06 C 704.69 80.34 704.74 86.63 704.69 92.91 L 703.84 92.86 C 679.85 92.52 655.85 92.66 631.86 92.71 C 631.74 86.46 632.02 80.21 631.75 73.97 L 631.69 73.30 C 622.85 72.70 613.99 73.58 605.16 72.86 C 604.90 68.96 605.09 64.98 603.89 61.21 C 588.92 60.87 573.96 60.76 559.00 60.15 C 558.93 56.63 558.92 53.12 558.99 49.61 C 567.10 49.40 575.23 49.77 583.35 49.42 C 583.99 42.31 583.14 35.17 583.84 28.07 Z" />
<path fill="#645bd0" opacity="1.00" d=" M 765.34 28.17 C 813.92 28.72 862.46 27.42 911.04 27.83 C 911.11 35.09 910.91 42.35 911.14 49.60 C 919.22 49.55 927.31 49.51 935.40 49.60 C 935.50 64.14 935.41 78.68 935.44 93.21 C 919.25 92.83 903.05 92.74 886.85 92.86 C 886.82 86.55 886.88 80.24 886.82 73.93 C 862.52 73.82 838.21 73.85 813.91 73.91 C 813.82 80.21 813.86 86.52 813.89 92.83 C 797.83 92.65 781.76 92.59 765.69 92.72 L 765.27 92.73 C 765.38 71.21 765.30 49.69 765.34 28.17 Z" />
</g>
<g id="#645bd0ff">
<path fill="#645bd0" opacity="1.00" d=" M 112.96 27.85 C 129.11 28.85 145.60 24.68 161.50 28.23 C 152.93 30.19 144.10 28.24 135.45 29.45 C 134.21 39.18 136.01 49.05 134.53 58.76 C 132.93 58.49 131.40 57.95 129.88 57.42 C 122.77 55.53 115.23 57.98 108.21 55.82 C 108.88 56.26 109.55 56.71 110.20 57.19 C 110.16 57.97 110.10 59.53 110.06 60.32 C 100.75 60.39 91.43 60.34 82.12 60.35 C 86.03 50.79 82.82 40.17 84.18 30.18 C 93.81 29.39 103.70 31.30 112.96 27.85 Z" />
</g>
<g id="#645bd0ff">
<path fill="#645bd0" opacity="1.00" d=" M 161.50 28.23 C 170.11 28.26 178.74 28.43 187.34 27.88 C 187.16 38.72 187.38 49.57 187.16 60.41 C 161.46 60.34 135.76 60.36 110.06 60.32 C 110.10 59.53 110.16 57.97 110.20 57.19 C 116.76 57.45 123.34 57.05 129.88 57.42 C 131.40 57.95 132.93 58.49 134.53 58.76 C 136.01 49.05 134.21 39.18 135.45 29.45 C 144.10 28.24 152.93 30.19 161.50 28.23 Z" />
</g>
<g id="#645bd0ff">
<path fill="#645bd0" opacity="1.00" d=" M 187.34 27.88 C 189.71 28.00 192.08 27.97 194.46 27.97 C 194.39 38.77 194.52 49.57 194.39 60.37 C 191.97 60.39 189.57 60.41 187.16 60.41 C 187.38 49.57 187.16 38.72 187.34 27.88 Z" />
</g>
<g id="#574ec1ff">
<path fill="#574ec1" opacity="1.00" d=" M 24.19 60.23 L 24.95 60.24 C 27.17 60.26 29.38 60.25 31.60 60.14 C 48.43 60.55 65.28 60.28 82.12 60.35 C 91.43 60.34 100.75 60.39 110.06 60.32 C 135.76 60.36 161.46 60.34 187.16 60.41 C 189.57 60.41 191.97 60.39 194.39 60.37 C 194.47 64.90 194.55 69.43 194.30 73.96 C 153.87 73.95 113.43 73.85 73.00 74.00 C 72.87 90.10 72.90 106.20 72.99 122.30 C 105.26 122.55 137.54 122.43 169.82 122.36 C 170.24 130.49 170.09 138.64 169.91 146.77 C 137.60 146.81 105.29 146.63 72.99 146.86 C 72.93 150.31 72.92 153.77 72.89 157.22 C 57.02 157.97 41.03 156.23 25.25 158.39 C 24.83 186.93 24.61 215.48 24.59 244.03 C 24.02 182.78 24.52 121.49 24.19 60.23 Z" />
<path fill="#574ec1" opacity="1.00" d=" M 255.42 92.10 C 271.58 92.63 287.74 93.02 303.92 92.90 C 304.05 110.85 303.72 128.81 304.08 146.76 C 328.33 147.34 352.55 146.61 376.81 146.74 C 377.18 138.62 376.56 130.49 377.15 122.39 C 385.10 122.33 393.05 122.62 400.99 122.29 C 401.20 112.47 401.00 102.64 401.08 92.81 C 417.31 92.17 433.58 93.53 449.78 92.40 C 449.83 102.34 449.78 112.28 449.82 122.22 C 441.70 122.81 433.55 122.30 425.42 122.43 C 425.19 130.54 425.82 138.69 425.12 146.78 C 417.11 146.82 409.09 146.61 401.07 146.86 C 401.04 150.54 401.05 154.23 400.96 157.91 C 352.46 157.78 303.95 157.48 255.45 157.95 C 255.15 136.00 255.36 114.05 255.42 92.10 Z" />
<path fill="#574ec1" opacity="1.00" d=" M 534.64 92.75 C 550.84 92.62 567.04 92.62 583.24 92.80 C 583.20 94.57 583.16 96.35 583.12 98.12 C 575.11 98.42 567.09 98.10 559.08 98.24 C 558.72 117.89 559.04 137.54 558.93 157.20 C 543.06 158.74 527.05 157.08 511.15 158.05 C 510.49 168.67 511.12 179.33 510.85 189.96 C 510.78 191.73 510.67 193.50 510.56 195.27 C 510.08 162.95 510.37 130.61 510.30 98.29 C 518.39 97.96 526.53 98.73 534.60 97.89 C 534.60 96.18 534.62 94.46 534.64 92.75 Z" />
<path fill="#574ec1" opacity="1.00" d=" M 631.86 92.71 C 655.85 92.66 679.85 92.52 703.84 92.86 C 703.90 93.36 704.02 94.37 704.08 94.88 C 696.43 95.09 688.79 94.76 681.16 95.22 C 680.91 104.99 680.46 114.84 681.42 124.58 C 688.96 125.62 696.60 124.85 704.19 125.14 C 703.89 136.02 704.59 146.92 703.86 157.79 C 687.95 157.72 671.92 158.68 656.07 157.19 C 655.97 137.54 656.25 117.89 655.92 98.24 C 647.95 98.10 639.98 98.42 632.02 98.13 C 631.95 96.32 631.89 94.51 631.86 92.71 Z" />
<path fill="#574ec1" opacity="1.00" d=" M 765.39 125.18 C 793.08 125.24 820.78 125.60 848.47 125.10 C 877.44 125.38 906.42 125.35 935.39 125.28 C 935.46 132.42 935.40 139.56 935.38 146.71 C 943.52 146.96 951.68 146.54 959.83 146.89 C 959.82 161.94 959.80 176.98 959.78 192.03 C 959.53 192.98 960.19 196.21 958.33 195.29 C 958.12 193.76 957.93 192.24 957.77 190.72 C 956.02 179.95 957.61 169.01 956.80 158.18 C 933.52 157.73 910.22 158.04 886.94 157.98 C 886.96 154.28 886.93 150.58 886.86 146.89 C 862.58 146.66 838.29 146.69 814.02 146.87 C 813.93 149.99 813.90 153.11 813.95 156.23 C 810.07 158.72 805.34 157.91 801.00 157.97 C 789.14 157.92 777.28 157.89 765.42 157.98 C 765.25 147.05 765.30 136.11 765.39 125.18 Z" />
</g>
<g id="#6057caff">
<path fill="#6057ca" opacity="1.00" d=" M 255.15 60.13 C 311.90 60.31 368.65 60.30 425.40 60.29 C 425.50 64.80 425.43 69.30 425.38 73.81 C 433.50 74.22 441.63 73.70 449.75 74.08 C 449.75 80.18 449.70 86.29 449.78 92.40 C 433.58 93.53 417.31 92.17 401.08 92.81 C 401.02 86.55 401.17 80.30 401.00 74.04 C 399.60 74.02 398.20 74.00 396.81 73.99 C 393.30 70.61 395.24 65.43 395.40 61.19 C 377.90 61.30 360.41 60.56 342.92 60.89 C 313.83 60.81 284.74 60.40 255.66 60.77 L 255.15 60.13 Z" />
</g>
<g id="#675fd0ff">
<path fill="#675fd0" opacity="1.00" d=" M 559.00 60.15 C 573.96 60.76 588.92 60.87 603.89 61.21 C 605.09 64.98 604.90 68.96 605.16 72.86 C 613.99 73.58 622.85 72.70 631.69 73.30 L 631.75 73.97 C 615.58 73.97 599.41 73.78 583.25 74.03 C 583.20 80.29 583.28 86.54 583.24 92.80 C 567.04 92.62 550.84 92.62 534.64 92.75 C 534.48 86.50 534.52 80.24 534.62 73.98 C 542.72 73.89 550.82 74.03 558.93 73.92 C 559.00 69.33 558.90 64.74 559.00 60.15 Z" />
</g>
<g id="#645bd0ff">
<path fill="#645bd0" opacity="1.00" d=" M 255.66 60.77 C 284.74 60.40 313.83 60.81 342.92 60.89 C 341.81 65.17 341.52 69.65 342.72 73.95 C 329.82 74.03 316.91 73.82 304.01 74.01 C 303.82 80.31 303.98 86.60 303.92 92.90 C 287.74 93.02 271.58 92.63 255.42 92.10 C 255.45 81.66 255.00 71.19 255.66 60.77 Z" />
</g>
<g id="#645bd0ff">
<path fill="#645bd0" opacity="1.00" d=" M 342.92 60.89 C 360.41 60.56 377.90 61.30 395.40 61.19 C 395.24 65.43 393.30 70.61 396.81 73.99 C 378.78 73.96 360.75 73.90 342.72 73.95 C 341.52 69.65 341.81 65.17 342.92 60.89 Z" />
</g>
<g id="#473fa5ff">
<path fill="#473fa5" opacity="1.00" d=" M 703.84 92.86 L 704.69 92.91 C 704.86 125.07 704.62 157.23 704.77 189.39 C 680.59 191.00 656.23 189.54 631.99 189.99 C 631.95 183.70 631.75 177.42 632.04 171.14 C 640.02 170.93 648.00 171.29 655.98 170.99 C 656.15 166.39 656.10 161.79 656.07 157.19 C 671.92 158.68 687.95 157.72 703.86 157.79 C 704.59 146.92 703.89 136.02 704.19 125.14 C 704.41 115.06 704.67 104.95 704.08 94.88 C 704.02 94.37 703.90 93.36 703.84 92.86 Z" />
</g>
<g id="#574ec1ff">
<path fill="#574ec1" opacity="1.00" d=" M 765.69 92.72 C 781.76 92.59 797.83 92.65 813.89 92.83 C 814.06 102.70 813.91 112.58 813.96 122.46 C 823.92 124.00 834.03 123.01 844.06 123.30 C 845.75 123.15 847.11 124.24 848.47 125.10 C 820.78 125.60 793.08 125.24 765.39 125.18 C 765.45 114.37 764.87 103.49 765.69 92.72 Z" />
</g>
<g id="#574ec1ff">
<path fill="#574ec1" opacity="1.00" d=" M 886.85 92.86 C 903.05 92.74 919.25 92.83 935.44 93.21 C 935.44 94.87 935.42 96.52 935.40 98.18 C 927.31 98.35 919.21 98.18 911.12 98.24 C 911.04 106.32 910.88 114.42 911.22 122.51 C 919.29 122.41 927.36 122.33 935.44 122.49 C 935.43 123.19 935.40 124.58 935.39 125.28 C 906.42 125.35 877.44 125.38 848.47 125.10 C 847.11 124.24 845.75 123.15 844.06 123.30 C 834.03 123.01 823.92 124.00 813.96 122.46 C 838.25 122.43 862.55 122.61 886.84 122.31 C 886.88 112.49 886.82 102.67 886.85 92.86 Z" />
</g>
<g id="#574ec1ff">
<path fill="#574ec1" opacity="1.00" d=" M 681.16 95.22 C 688.79 94.76 696.43 95.09 704.08 94.88 C 704.67 104.95 704.41 115.06 704.19 125.14 C 696.60 124.85 688.96 125.62 681.42 124.58 C 680.46 114.84 680.91 104.99 681.16 95.22 Z" />
</g>
<g id="#473fa5ff">
<path fill="#473fa5" opacity="1.00" d=" M 801.00 157.97 C 805.34 157.91 810.07 158.72 813.95 156.23 C 813.89 167.50 813.98 178.76 813.88 190.03 C 797.74 190.12 781.60 189.81 765.46 190.03 C 765.24 179.35 765.31 168.66 765.42 157.98 C 777.28 157.89 789.14 157.92 801.00 157.97 Z" />
</g>
<g id="#3f3892ff">
<path fill="#3f3892" opacity="1.00" d=" M 25.25 158.39 C 41.03 156.23 57.02 157.97 72.89 157.22 C 72.98 186.12 72.91 215.02 72.90 243.92 C 56.80 244.13 40.69 243.91 24.59 244.03 C 24.61 215.48 24.83 186.93 25.25 158.39 Z" />
<path fill="#3f3892" opacity="1.00" d=" M 255.51 190.01 C 271.63 189.53 287.85 190.83 303.92 189.34 C 303.90 207.54 303.95 225.73 303.90 243.92 C 287.80 244.09 271.69 243.99 255.59 243.97 C 255.26 225.99 255.42 208.00 255.51 190.01 Z" />
<path fill="#3f3892" opacity="1.00" d=" M 631.99 189.99 C 656.23 189.54 680.59 191.00 704.77 189.39 C 704.74 191.45 704.69 193.50 704.62 195.56 C 696.63 195.53 688.62 195.32 680.63 195.63 C 680.31 203.62 680.53 211.63 680.56 219.63 C 672.40 219.88 664.24 219.44 656.09 219.83 C 655.90 227.87 656.18 235.91 655.98 243.95 C 623.66 244.03 591.34 244.03 559.02 243.95 C 558.82 235.91 559.09 227.87 558.91 219.83 C 550.95 219.50 542.97 219.77 535.00 219.72 C 534.09 211.66 534.91 203.48 534.62 195.38 C 526.60 195.28 518.58 195.54 510.56 195.27 C 510.67 193.50 510.78 191.73 510.85 189.96 C 534.95 190.06 559.05 189.96 583.15 190.03 C 583.16 191.73 583.20 193.43 583.26 195.14 C 599.43 195.62 615.66 195.47 631.84 195.21 C 631.90 193.47 631.96 191.73 631.99 189.99 Z" />
<path fill="#3f3892" opacity="1.00" d=" M 369.60 190.45 C 388.11 189.48 406.71 190.31 425.25 190.04 C 425.30 191.88 425.39 193.72 425.46 195.56 C 433.47 195.54 441.47 195.38 449.47 195.59 C 449.72 203.55 449.70 211.52 449.49 219.48 C 441.46 219.70 433.43 219.57 425.41 219.49 C 425.22 227.64 425.60 235.80 425.24 243.95 C 417.19 244.03 409.15 244.07 401.10 243.92 C 400.96 235.89 401.24 227.86 401.00 219.83 C 393.05 219.49 385.08 219.79 377.13 219.72 C 376.54 211.61 377.23 203.48 376.76 195.37 C 374.09 195.38 371.43 195.34 368.77 195.28 C 369.04 193.66 369.32 192.06 369.60 190.45 Z" />
<path fill="#3f3892" opacity="1.00" d=" M 765.46 190.03 C 781.60 189.81 797.74 190.12 813.88 190.03 C 813.90 191.76 813.96 193.50 814.04 195.23 C 838.30 195.48 862.59 195.53 886.85 195.21 C 886.89 193.46 886.94 191.71 886.96 189.97 C 910.55 190.41 934.27 189.10 957.77 190.72 C 957.93 192.24 958.12 193.76 958.33 195.29 C 950.68 195.53 943.03 195.28 935.38 195.38 C 935.26 203.39 935.57 211.41 935.24 219.42 C 927.26 219.75 919.26 219.57 911.27 219.47 C 910.69 227.62 911.27 235.79 910.98 243.95 C 862.51 244.04 814.03 244.01 765.56 243.97 C 765.20 226.00 765.44 208.01 765.46 190.03 Z" />
</g>
<g id="#473fa5ff">
<path fill="#473fa5" opacity="1.00" d=" M 255.45 157.95 C 303.95 157.48 352.46 157.78 400.96 157.91 C 401.12 162.26 400.98 166.62 401.08 170.98 C 409.13 171.23 417.18 170.94 425.23 171.10 C 425.52 177.41 425.48 183.73 425.25 190.04 C 406.71 190.31 388.11 189.48 369.60 190.45 C 369.32 192.06 369.04 193.66 368.77 195.28 C 363.41 195.50 358.05 195.50 352.70 195.28 C 352.39 187.26 352.62 179.24 352.63 171.23 C 336.43 170.82 320.22 171.10 304.01 171.08 C 303.77 177.17 304.01 183.26 303.92 189.34 C 287.85 190.83 271.63 189.53 255.51 190.01 C 255.29 179.33 255.40 168.64 255.45 157.95 Z" />
</g>
<g id="#473fa5ff">
<path fill="#473fa5" opacity="1.00" d=" M 511.15 158.05 C 527.05 157.08 543.06 158.74 558.93 157.20 C 558.90 161.79 558.85 166.39 559.02 170.98 C 567.03 171.28 575.06 170.90 583.08 171.14 C 583.40 177.43 583.18 183.73 583.15 190.03 C 559.05 189.96 534.95 190.06 510.85 189.96 C 511.12 179.33 510.49 168.67 511.15 158.05 Z" />
</g>
<g id="#473fa5ff">
<path fill="#473fa5" opacity="1.00" d=" M 886.94 157.98 C 910.22 158.04 933.52 157.73 956.80 158.18 C 957.61 169.01 956.02 179.95 957.77 190.72 C 934.27 189.10 910.55 190.41 886.96 189.97 C 886.88 179.30 886.91 168.64 886.94 157.98 Z" />
</g>
<g id="#652121a8">
<path fill="#652121" opacity="0.66" d=" M 449.33 268.33 L 450.05 268.33 C 449.83 276.55 449.97 284.78 449.92 293.00 L 376.82 293.00 L 376.82 292.00 C 400.95 291.85 425.09 292.08 449.22 291.90 C 449.66 284.05 449.25 276.19 449.33 268.33 Z" />
</g>
<g id="#602020a0">
<path fill="#602020" opacity="0.63" d=" M 0.00 292.00 C 32.41 292.01 64.81 291.97 97.22 292.02 L 97.21 293.00 L 0.00 293.00 L 0.00 292.00 Z" />
</g>
</svg>
