<?xml version="1.0" encoding="UTF-8" ?>
<!DOCTYPE svg PUBLIC "-//W3C//DTD SVG 1.1//EN" "http://www.w3.org/Graphics/SVG/1.1/DTD/svg11.dtd">
<svg width="1601pt" height="30pt" viewBox="0 0 1601 30" version="1.1" xmlns="http://www.w3.org/2000/svg">
<g id="#182f4aff">
<path fill="#182f4a" opacity="1.00" d=" M 89.81 0.00 L 108.01 0.00 C 140.27 0.80 172.17 5.99 204.11 10.17 C 229.00 13.53 253.95 16.52 279.02 18.28 C 326.96 21.78 375.06 19.14 422.96 16.22 C 481.25 12.42 539.46 7.28 597.83 4.63 C 648.11 2.10 698.48 2.57 748.80 3.48 C 842.03 5.28 935.19 9.53 1028.41 11.51 C 1089.95 12.71 1151.56 13.00 1213.05 9.80 C 1284.58 5.59 1356.54 1.06 1428.03 8.22 C 1475.46 13.78 1523.43 15.98 1571.09 12.28 C 1581.10 11.50 1591.07 10.37 1601.00 8.88 L 1601.00 30.00 L 0.00 30.00 L 0.00 8.83 C 29.55 2.88 59.75 1.13 89.81 0.00 Z" />
</g>
</svg>
