<svg id="Layer_1" data-name="Layer 1" xmlns="http://www.w3.org/2000/svg" viewBox="0 0 147.13 102.76">
  <defs>
    <style>
      .cls-1 {
        fill: #cecece;
      }

      .cls-2 {
        fill: #e3e3e3;
      }

      .cls-3 {
        fill: #cdcdcd;
      }
    </style>
  </defs>
  <title>cloudMid</title>
  <g>
    <polygon class="cls-1" points="18.22 42.01 0 45.81 18.58 47.24 18.22 42.01"/>
    <polygon class="cls-2" points="58.88 102.76 80.78 98.17 58.65 96.47 58.88 102.76"/>
    <polygon class="cls-1" points="46.13 20.96 17.18 27.01 46.45 28.22 46.13 20.96"/>
    <polygon class="cls-2" points="92.87 40.74 125.24 33.97 123.89 3.53 91.53 10.3 92.87 40.74"/>
    <polygon class="cls-1" points="123.89 3.53 77.86 0 45.5 6.77 91.53 10.3 123.89 3.53"/>
    <polygon class="cls-1" points="112.56 41.92 144.92 35.15 125.24 33.97 92.87 40.74 112.56 41.92"/>
    <polygon class="cls-3" points="89.47 90.03 114.77 91.97 112.56 41.92 92.87 40.74 91.53 10.3 45.5 6.77 46.13 20.96 46.45 28.22 17.18 27.01 18.22 42.01 18.58 47.24 0 45.81 1.65 83.29 23.42 84.96 23.96 100.08 58.88 102.76 58.65 96.47 80.78 98.17 89.86 98.87 89.47 90.03"/>
    <polygon class="cls-2" points="147.13 85.2 144.92 35.15 112.56 41.92 114.77 91.97 89.47 90.03 89.86 98.87 122.23 92.1 122.15 90.43 147.13 85.2"/>
  </g>
</svg>
