<svg id="Layer_1" data-name="Layer 1" xmlns="http://www.w3.org/2000/svg" viewBox="0 0 866.85 345.6"><defs><style>.cls-1{isolation:isolate;}.cls-2{fill:#775b44;}.cls-3{fill:#82634a;}.cls-4{fill:#9b7658;}.cls-5{fill:#629b65;}.cls-6{fill:#6baa6e;}.cls-7{fill:#80cb83;}</style></defs><title>platform</title><g class="cls-1"><polygon class="cls-2" points="864.21 177.7 866.85 225.15 556.84 345.6 554.21 298.15 864.21 177.7"/><polygon class="cls-3" points="554.21 298.15 556.84 345.6 4.52 214.92 1.88 167.46 554.21 298.15"/><polygon class="cls-4" points="864.21 177.7 554.21 298.15 1.88 167.46 311.89 47.02 864.21 177.7"/></g><g class="cls-1"><polygon class="cls-5" points="862.33 130.68 864.96 178.13 554.95 298.58 552.32 251.13 862.33 130.68"/><polygon class="cls-6" points="552.32 251.13 554.95 298.58 2.64 167.9 0 120.45 552.32 251.13"/><polygon class="cls-7" points="862.33 130.68 552.32 251.13 0 120.45 310.01 0 862.33 130.68"/></g></svg>